<svg xmlns="http://www.w3.org/2000/svg" version="1.1" xmlns:xlink="http://www.w3.org/1999/xlink" xmlns:svgjs="http://svgjs.dev/svgjs" width="1000" height="750" viewBox="0 0 1000 750"><rect width="1000" height="750" fill="#6504b5"></rect><g transform="matrix(0.834,0,0,0.834,82.49454545454546,115.4193570850203)"><svg viewBox="0 0 396 247" data-background-color="#6504b5" preserveAspectRatio="xMidYMid meet" height="623" width="1000" xmlns="http://www.w3.org/2000/svg" xmlns:xlink="http://www.w3.org/1999/xlink"><defs></defs><g id="tight-bounds" transform="matrix(1,0,0,1,0.2400000000000091,-0.09999999999999432)"><svg viewBox="0 0 395.52 247.2" height="247.2" width="395.52"><g><svg></svg></g><g><svg viewBox="0 0 395.52 247.2" height="247.2" width="395.52"><g transform="matrix(3.1483435085248495, 0, 0, 3.1483435085248495, 50.77171244574609, 1)"><svg xmlns="http://www.w3.org/2000/svg" xmlns:xlink="http://www.w3.org/1999/xlink" version="1.1" x="0" y="0" viewBox="4.562999999999992 13.694774208543079 93.375 77.88222579145692" enable-background="new 0 0 100 100" xml:space="preserve" height="77.88222579145692" width="93.375" class="icon-none" data-fill-palette-color="accent" id="none"><path fill-rule="evenodd" clip-rule="evenodd" d="M95.934 26.48l-3.713 8.296c-1.01 1.928-2.794 3.025-5.35 3.293h-1.395c-1.708-0.105-3.567-0.14-5.577-0.105-2.429 0.395-4.59 0.912-6.483 1.551-1.511 0.5-3.027 0.576-4.55 0.227-0.615-0.174-1.487-0.512-2.614-1.011-0.418-0.209-1.487-0.931-3.207-2.162-1.789-1.29-3.485-2.329-5.089-3.119-1.405-0.768-4.101-2.046-8.087-3.835-2.277-1.104-3.753-2.097-4.426-2.979-0.663-0.895-0.75-1.976-0.262-3.242 0.267-0.72 0.808-1.255 1.621-1.604 1.138-0.581 2.498-0.535 4.079 0.14 1.904 0.86 3.224 1.453 3.956 1.778 1.29 0.581 3.317 1.325 6.082 2.23 0.942 0.291 1.883 0.489 2.823 0.593h1.203l-1.08-0.488c-6.356-2.916-10.533-4.799-12.531-5.647-1.952-0.813-3.643-0.941-5.072-0.382-1.383 0.581-2.335 1.417-2.858 2.509-0.279 0.616-0.471 1.447-0.575 2.492-0.744-0.046-2.26-0.111-4.549-0.192-4.799 2.313-7.401 3.544-7.808 3.695-0.941 0.314-1.906 0.488-2.893 0.523-1.081-0.024-1.876-0.216-2.388-0.576-0.604-0.255-1.034-0.895-1.29-1.917-0.175-1.047 0.737-2.179 2.736-3.399l10.596-6.867c5.101-0.603 10.08-1.423 14.937-2.457 1.068-0.244 2.103-0.145 3.102 0.296 3.115 1.604 6.659 3.23 10.632 4.88 1.977 0.813 3.887 1.575 5.734 2.284 3.277 1.057 6.024 1.667 8.244 1.83h0.018c2.439 0.023 7.784-0.941 16.034-2.894C98.606 19.631 98.606 21.717 95.934 26.48z" fill="#ffffff" data-fill-palette-color="accent"></path><path fill-rule="evenodd" clip-rule="evenodd" d="M25.73 31.831c3.405 5.019 6.298 10.091 8.68 15.215 3.764 8.168 5.49 15.047 5.176 20.636-0.058 0.302-0.209 0.604-0.453 0.906-0.348 0.384-0.604 0.61-0.767 0.68-4.276 1.371-8.511 1.731-12.706 1.081-6.309-1.139-11.741-4.619-16.295-10.439 0.825-7.576 2.347-13.485 4.566-17.726l2.962-4.113C19.567 35.154 22.512 33.075 25.73 31.831z" fill="#ffffff" data-fill-palette-color="accent"></path><path fill-rule="evenodd" clip-rule="evenodd" d="M79.011 48.388c-0.709-0.917-1.587-1.476-2.632-1.672-9.572 0.235-14.992-1.101-16.261-4.009-2.406-5.798-6.397-9.499-11.974-11.102-5.577-1.592-11.648-0.93-18.213 1.986 2.893 4.613 5.287 9.132 7.18 13.56 3.509 7.878 5.072 14.617 4.688 20.218 0 1.022-0.389 1.992-1.167 2.91-0.686 0.93-1.511 1.546-2.475 1.849-3.01 1.01-7.129 1.301-12.357 0.871-5.24-0.442-10.904-3.167-16.993-8.175-1.385 6.83-2.799 11.271-4.244 13.324 14.306 8.29 28.217 12.767 41.733 13.429 2.091-7.355 3.184-11.137 3.277-11.346 0.523-1.36 0.837-2.133 0.941-2.318 0.244-0.406 0.546-0.784 0.906-1.133 0.789-0.778 1.69-1.243 2.702-1.395 5.959-0.813 11.095-2.66 15.406-5.542 6.519-4.321 9.997-10.521 10.439-18.597C80.063 50.224 79.742 49.271 79.011 48.388zM53.181 50.445c-0.686 0.674-1.51 1.01-2.475 1.01-0.988 0-1.818-0.336-2.493-1.01-0.685-0.674-1.028-1.505-1.028-2.492 0-0.977 0.343-1.802 1.028-2.475 0.674-0.674 1.504-1.012 2.493-1.012 0.965 0 1.789 0.337 2.475 1.012 0.675 0.673 1.012 1.498 1.012 2.475C54.192 48.939 53.855 49.771 53.181 50.445z" fill="#ffffff" data-fill-palette-color="accent"></path></svg><g></g></g><rect width="348.05760000000004" height="65.07921194179927" fill="#6504b5" y="91.06039402910037" x="23.731199999999973" data-fill-palette-color="quaternary"></rect><g transform="matrix(1,0,0,1,39.55199999999999,101.49657184115523)"><svg viewBox="0 0 316.416 44.20685631768953" height="44.20685631768953" width="316.416"><g><svg viewBox="0 0 316.416 44.20685631768953" height="44.20685631768953" width="316.416"><g><svg viewBox="0 0 316.416 44.20685631768953" height="44.20685631768953" width="316.416"><g><svg viewBox="0 0 316.416 44.20685631768953" height="44.20685631768953" width="316.416"><g><svg viewBox="0 0 316.416 44.20685631768953" height="44.20685631768953" width="316.416"><g><svg viewBox="0 0 316.416 44.20685631768953" height="44.20685631768953" width="316.416"><g transform="matrix(1,0,0,1,0,0)"><svg width="316.416" viewBox="2.54 -36.91 270.48999999999995 37.79" height="44.20685631768953" data-palette-color="#ffffff"><path d="M2.54-3.32L2.54-3.32 2.54-35.84Q2.54-36.01 2.7-36.13 2.86-36.25 3.2-36.3 3.54-36.35 3.8-36.38 4.05-36.4 4.53-36.41 5-36.43 5.18-36.43L5.18-36.43 25-36.43Q27.44-36.43 29.61-35.66 31.79-34.89 33.47-33.42 35.16-31.96 36.13-29.64 37.11-27.32 37.11-24.41L37.11-24.41Q37.11-22.27 36.61-20.48 36.11-18.7 35.29-17.44 34.47-16.19 33.29-15.19 32.1-14.18 30.87-13.57 29.64-12.96 28.15-12.54 26.66-12.11 25.4-11.91 24.15-11.72 22.75-11.62L22.75-11.62 18.07-11.62Q17.87-7.79 17.87-3.03L17.87-3.03 17.87-0.29Q17.8 0.59 17.04 0.59L17.04 0.59 3.17 0.59Q2.54-1.1 2.54-3.32ZM16.31-20.41L16.31-20.41 17.09-19.34Q18.09-19.34 19.01-19.48 19.92-19.63 20.8-20 21.68-20.36 22.31-20.94 22.95-21.51 23.34-22.4 23.73-23.29 23.73-24.41L23.73-24.41Q23.73-25.27 23.5-25.94 23.27-26.61 22.94-27.04 22.61-27.47 22.03-27.78 21.46-28.1 20.96-28.26 20.46-28.42 19.69-28.5 18.92-28.59 18.42-28.6 17.92-28.61 17.14-28.61L17.14-28.61Q16.31-28.22 16.31-20.41ZM39.5-0.88L39.5-0.88 39.5-1.81Q39.5-5.98 39.6-14.14 39.69-22.29 39.69-26.46L39.69-26.46 39.69-36.57 68.11-36.57 68.11-28.56Q68.11-28.49 68.11-28.2 68.11-27.91 68.11-27.81 68.11-27.71 68.09-27.45 68.06-27.2 68-27.1 67.94-27 67.83-26.82 67.72-26.64 67.58-26.56 67.43-26.49 67.19-26.43 66.94-26.37 66.65-26.37L66.65-26.37 65.96-26.37Q59.64-26.37 54.44-26.56L54.44-26.56Q54.39-26.17 54.28-25.35 54.17-24.54 54.11-23.91 54.05-23.29 54.05-22.71L54.05-22.71 65.67-22.71Q66.4-22.71 66.65-22.51 66.89-22.31 66.89-21.88L66.89-21.88Q66.89-21.75 66.87-21.48 66.84-21.22 66.84-21.09L66.84-21.09Q66.84-19.92 66.92-17.63 66.99-15.33 66.99-14.16L66.99-14.16Q66.92-13.67 66.6-13.67L66.6-13.67Q66.45-13.67 66.35-13.77L66.35-13.77Q58.64-13.38 54.93-13.38L54.93-13.38 54.29-13.38 54.29-9.86Q56.47-9.86 60.58-10.06 64.69-10.25 66.75-10.25L66.75-10.25Q68.36-10.25 68.6-9.57L68.6-9.57 68.6-7.71Q68.6-6.54 68.65-4.25 68.7-1.95 68.7-0.78L68.7-0.78Q68.7 0.44 67.72 0.44L67.72 0.44Q66.45 0.44 63.82 0.42 61.18 0.39 59.81 0.39L59.81 0.39Q56.3 0.39 49.75 0.57 43.21 0.76 40.28 0.78L40.28 0.78 39.6 0Q39.5-0.68 39.5-0.88ZM68.75-29.25L68.75-29.25Q68.75-29.69 68.79-30.55 68.84-31.42 68.84-31.74L68.84-31.74Q68.84-31.86 68.79-32.62 68.75-33.37 68.75-33.94L68.75-33.94Q68.75-36.52 69.23-36.52L69.23-36.52Q69.43-36.52 69.58-36.47L69.58-36.47Q74.68-36.47 84.7-36.6 94.72-36.72 99.7-36.72L99.7-36.72Q100.95-36.72 101.28-36.5 101.61-36.28 101.61-35.64L101.61-35.64 101.61-34.96Q101.61-33.69 101.63-31.21 101.66-28.74 101.66-27.44L101.66-27.44Q101.66-26.17 100.97-26.17L100.97-26.17Q99.6-26.17 96.89-26.22 94.18-26.27 92.82-26.27L92.82-26.27 92.82-0.1Q92.65 0.63 91.99 0.68L91.99 0.68Q91.13 0.68 89.5 0.66 87.86 0.63 87.01 0.63L87.01 0.63Q86.96 0.63 86.91 0.68L86.91 0.68Q85.83 0.68 83.89 0.66 81.95 0.63 81 0.63L81 0.63 79.54 0.63Q79.05 0.68 78.12 0.68L78.12 0.68 77.14-0.49Q77.14-4.2 77.39-11.52 77.63-18.85 77.63-22.56L77.63-22.56Q77.63-22.73 77.62-23.12 77.61-23.51 77.61-23.75 77.61-24 77.57-24.37 77.53-24.73 77.45-24.96 77.36-25.2 77.24-25.43 77.12-25.66 76.91-25.77 76.7-25.88 76.41-25.88L76.41-25.88 69.43-25.88Q68.75-26.07 68.75-29.25ZM115.18 0L115.18 0Q116.69-5.59 118.52-11.35 120.35-17.11 123.07-25.13 125.8-33.15 126.8-36.23L126.8-36.23Q127.09-36.72 127.19-36.82L127.19-36.82 131.29-36.82Q132.73-36.82 135.54-36.87 138.34-36.91 139.78-36.91L139.78-36.91 143.89-36.91Q144.25-36.91 144.5-36.9 144.74-36.89 145.08-36.84 145.42-36.79 145.63-36.69 145.84-36.6 145.99-36.4 146.13-36.21 146.13-35.94L146.13-35.94 157.39-0.27Q157.39 0.22 157.03 0.4 156.68 0.59 155.7 0.59L155.7 0.59 153.46 0.59Q152.48 0.59 150.55 0.61 148.62 0.63 147.65 0.63L147.65 0.63Q147.35 0.63 146.46 0.67 145.57 0.71 144.96 0.7 144.35 0.68 143.61 0.62 142.86 0.56 142.41 0.35 141.96 0.15 141.84-0.2L141.84-0.2 141.84-1.81Q141.59-3.03 140.98-4.05 140.37-5.08 139.69-5.08L139.69-5.08 131.29-5.08 130.02 0.1Q129.75 0.68 127.28 0.68L127.28 0.68 125.33 0.68Q124.28 0.68 122.21 0.76 120.13 0.83 119.08 0.83L119.08 0.83 118.4 0.83Q118.01 0.83 117.17 0.85 116.32 0.88 115.86 0.88L115.86 0.88Q115.66 0.68 115.18 0ZM134.07-23.29L132.12-14.82 132.8-13.67 134.41-13.67Q136.37-13.67 137.99-13.9 139.61-14.14 139.61-14.65L139.61-14.65 136.46-28.71Q136.03-28.71 135.28-27.05 134.54-25.39 134.07-23.29L134.07-23.29ZM173.91-3.32L173.91-3.32 173.91-35.84Q173.91-36.01 174.07-36.13 174.23-36.25 174.57-36.3 174.91-36.35 175.17-36.38 175.42-36.4 175.9-36.41 176.38-36.43 176.55-36.43L176.55-36.43 196.37-36.43Q198.81-36.43 200.99-35.66 203.16-34.89 204.84-33.42 206.53-31.96 207.5-29.64 208.48-27.32 208.48-24.41L208.48-24.41Q208.48-22.27 207.98-20.48 207.48-18.7 206.66-17.44 205.84-16.19 204.66-15.19 203.48-14.18 202.24-13.57 201.01-12.96 199.52-12.54 198.03-12.11 196.77-11.91 195.52-11.72 194.13-11.62L194.13-11.62 189.44-11.62Q189.24-7.79 189.24-3.03L189.24-3.03 189.24-0.29Q189.17 0.59 188.41 0.59L188.41 0.59 174.55 0.59Q173.91-1.1 173.91-3.32ZM187.68-20.41L187.68-20.41 188.46-19.34Q189.46-19.34 190.38-19.48 191.29-19.63 192.17-20 193.05-20.36 193.69-20.94 194.32-21.51 194.71-22.4 195.1-23.29 195.1-24.41L195.1-24.41Q195.1-25.27 194.87-25.94 194.64-26.61 194.31-27.04 193.98-27.47 193.41-27.78 192.83-28.1 192.33-28.26 191.83-28.42 191.06-28.5 190.29-28.59 189.79-28.6 189.29-28.61 188.51-28.61L188.51-28.61Q187.68-28.22 187.68-20.41ZM210.87-0.88L210.87-0.88 210.87-1.81Q210.87-5.98 210.97-14.14 211.07-22.29 211.07-26.46L211.07-26.46 211.07-36.57 239.48-36.57 239.48-28.56Q239.48-28.49 239.48-28.2 239.48-27.91 239.48-27.81 239.48-27.71 239.46-27.45 239.44-27.2 239.37-27.1 239.31-27 239.2-26.82 239.09-26.64 238.95-26.56 238.8-26.49 238.56-26.43 238.31-26.37 238.02-26.37L238.02-26.37 237.34-26.37Q231.01-26.37 225.81-26.56L225.81-26.56Q225.76-26.17 225.65-25.35 225.54-24.54 225.48-23.91 225.42-23.29 225.42-22.71L225.42-22.71 237.04-22.71Q237.78-22.71 238.02-22.51 238.26-22.31 238.26-21.88L238.26-21.88Q238.26-21.75 238.24-21.48 238.21-21.22 238.21-21.09L238.21-21.09Q238.21-19.92 238.29-17.63 238.36-15.33 238.36-14.16L238.36-14.16Q238.29-13.67 237.97-13.67L237.97-13.67Q237.82-13.67 237.73-13.77L237.73-13.77Q230.01-13.38 226.3-13.38L226.3-13.38 225.67-13.38 225.67-9.86Q227.84-9.86 231.95-10.06 236.07-10.25 238.12-10.25L238.12-10.25Q239.73-10.25 239.97-9.57L239.97-9.57 239.97-7.71Q239.97-6.54 240.02-4.25 240.07-1.95 240.07-0.78L240.07-0.78Q240.07 0.44 239.09 0.44L239.09 0.44Q237.82 0.44 235.19 0.42 232.55 0.39 231.18 0.39L231.18 0.39Q227.67 0.39 221.13 0.57 214.58 0.76 211.65 0.78L211.65 0.78 210.97 0Q210.87-0.68 210.87-0.88ZM240.12-29.25L240.12-29.25Q240.12-29.69 240.17-30.55 240.21-31.42 240.21-31.74L240.21-31.74Q240.21-31.86 240.17-32.62 240.12-33.37 240.12-33.94L240.12-33.94Q240.12-36.52 240.61-36.52L240.61-36.52Q240.8-36.52 240.95-36.47L240.95-36.47Q246.05-36.47 256.07-36.6 266.09-36.72 271.07-36.72L271.07-36.72Q272.32-36.72 272.65-36.5 272.98-36.28 272.98-35.64L272.98-35.64 272.98-34.96Q272.98-33.69 273-31.21 273.03-28.74 273.03-27.44L273.03-27.44Q273.03-26.17 272.34-26.17L272.34-26.17Q270.98-26.17 268.27-26.22 265.56-26.27 264.19-26.27L264.19-26.27 264.19-0.1Q264.02 0.63 263.36 0.68L263.36 0.68Q262.5 0.68 260.87 0.66 259.23 0.63 258.38 0.63L258.38 0.63Q258.33 0.63 258.28 0.68L258.28 0.68Q257.21 0.68 255.27 0.66 253.32 0.63 252.37 0.63L252.37 0.63 250.91 0.63Q250.42 0.68 249.49 0.68L249.49 0.68 248.52-0.49Q248.52-4.2 248.76-11.52 249-18.85 249-22.56L249-22.56Q249-22.73 248.99-23.12 248.98-23.51 248.98-23.75 248.98-24 248.94-24.37 248.91-24.73 248.82-24.96 248.73-25.2 248.61-25.43 248.49-25.66 248.28-25.77 248.08-25.88 247.78-25.88L247.78-25.88 240.8-25.88Q240.12-26.07 240.12-29.25Z" opacity="1" transform="matrix(1,0,0,1,0,0)" fill="#ffffff" class="undefined-text-0" data-fill-palette-color="primary" id="text-0"></path></svg></g></svg></g></svg></g></svg></g></svg></g></svg></g></svg></g></svg></g></svg><rect width="395.52" height="247.2" fill="none" stroke="none" visibility="hidden"></rect></g></svg></g></svg>